<?xml version="1.0" encoding="utf-8"?>
<!-- Generator: Adobe Illustrator 22.0.1, SVG Export Plug-In . SVG Version: 6.00 Build 0)  -->
<svg version="1.1" id="Calque_1" xmlns="http://www.w3.org/2000/svg" xmlns:xlink="http://www.w3.org/1999/xlink" x="0px" y="0px"
	 viewBox="0 0 2880 1800" style="enable-background:new 0 0 2880 1800;" xml:space="preserve">
<style type="text/css">
	.st0{fill:#42BEE1;}
	.st1{fill:#F1EFF0;}
	.st2{fill:#EB5855;}
	.st3{fill:#395367;}
	.st4{fill:#FFFFFF;}
	.st5{fill:#FCC452;}
	.st6{fill:#CCDBF1;}
	.st7{fill:#00AABF;}
	.st8{fill:#445D73;}
	.st9{fill:#FDD874;}
	.st10{fill:#EDC768;}
	.st11{fill:#DAE3EC;}
</style>
<g>
	<path class="st0" d="M587.1,762.9c44.1,0,79.8,35.7,79.8,79.8s-35.7,79.8-79.8,79.8c-44.1,0-79.8-35.7-79.8-79.8
		S543,762.9,587.1,762.9L587.1,762.9z"/>
	<path class="st1" d="M587.1,892.8c-27.6,0-50.1-22.5-50.1-50.1s22.5-50.1,50.1-50.1s50.1,22.5,50.1,50.1S614.7,892.8,587.1,892.8
		L587.1,892.8z"/>
	<polygon class="st2" points="582.9,729 591.2,729 591.2,754.4 582.9,754.4 582.9,729 	"/>
	<polygon class="st2" points="521.8,783.2 503.8,765.2 509.7,759.4 527.6,777.4 521.8,783.2 	"/>
	<polygon class="st2" points="646.6,777.4 664.5,759.4 670.4,765.2 652.4,783.2 646.6,777.4 	"/>
	<path class="st3" d="M712.1,1071.6H562.6c-0.7,0-1.3-0.6-1.3-1.3v-37c0-0.7,0.6-1.3,1.3-1.3h149.4c0.7,0,1.3,0.6,1.3,1.3v37
		C713.4,1071,712.8,1071.6,712.1,1071.6L712.1,1071.6z"/>
	<path class="st4" d="M686.4,1042.3c5.3,0,9.5,4.3,9.5,9.5s-4.3,9.5-9.5,9.5s-9.5-4.3-9.5-9.5S681.2,1042.3,686.4,1042.3
		L686.4,1042.3z"/>
	<path class="st5" d="M706,906.8c0-9.5-7.7-17.2-17.2-17.2c-9.5,0-17.2,7.7-17.2,17.2c0-9.5-7.7-17.2-17.2-17.2l0,0
		c-9.5,0-17.2,7.7-17.2,17.2c0-9.5-7.7-17.2-17.2-17.2c-9.5,0-17.2,7.7-17.2,17.2v-62.5c0-9.5-7.7-17.2-17.2-17.2
		c-9.5,0-17.2,7.7-17.2,17.2v117.2c-13.6-9.9-30.3-15.8-48.4-15.8h-5c-9.4,0-17.1,7.7-17.1,17.1c0,9.4,7.7,17.1,17.1,17.1h5
		c26.4,0,47.9,21.5,47.9,47.9c0,0.7,0.2,1.6,0.3,4l137.7-0.1V906.8L706,906.8z"/>
</g>
<g>
	<polygon class="st6" points="1328.9,811.2 1453.1,811.2 1453.1,831.4 1328.9,831.4 1328.9,811.2 	"/>
	<polygon class="st6" points="1486.6,864.9 1506.8,864.9 1506.8,982.4 1486.6,982.4 1486.6,864.9 	"/>
	<polygon class="st6" points="1328.9,1019.3 1453.1,1019.3 1453.1,1039.4 1328.9,1039.4 1328.9,1019.3 	"/>
	<polygon class="st6" points="1278.6,864.9 1298.7,864.9 1298.7,982.4 1278.6,982.4 1278.6,864.9 	"/>
	<path class="st7" d="M1318.9,776h-67.1c-6.7,0-11.7,5-11.7,11.7v67.1c0,6.7,5,11.7,11.7,11.7h67.1c6.7,0,11.7-5,11.7-11.7v-67.1
		C1330.6,781,1325.6,776,1318.9,776L1318.9,776z"/>
	<path class="st7" d="M1530.3,776h-67.1c-6.7,0-11.7,5-11.7,11.7v67.1c0,6.7,5,11.7,11.7,11.7h67.1c6.7,0,11.7-5,11.7-11.7v-67.1
		C1542,781,1537,776,1530.3,776L1530.3,776z"/>
	<path class="st7" d="M1318.9,980.7h-67.1c-6.7,0-11.7,5-11.7,11.7v67.1c0,6.7,5,11.7,11.7,11.7h67.1c6.7,0,11.7-5,11.7-11.7v-67.1
		C1330.6,985.7,1325.6,980.7,1318.9,980.7L1318.9,980.7z"/>
	<path class="st7" d="M1530.3,980.7h-67.1c-6.7,0-11.7,5-11.7,11.7v67.1c0,6.7,5,11.7,11.7,11.7h67.1c6.7,0,11.7-5,11.7-11.7v-67.1
		C1542,985.7,1537,980.7,1530.3,980.7L1530.3,980.7z"/>
</g>
<g>
	<path class="st8" d="M2133.8,913.6c-0.5-0.1-1-0.2-1.5-0.4c-3-1.3-4.4-4.7-3.1-7.7l35.6-84c1.3-3,4.7-4.4,7.7-3.1
		c3,1.3,4.4,4.7,3.1,7.7l-35.6,84C2138.9,912.6,2136.4,914,2133.8,913.6L2133.8,913.6z"/>
	<path class="st8" d="M2216.5,924.6c-2.6-0.3-4.7-2.3-5-5l-12.4-90.4c-0.4-3.2,1.8-6.2,5-6.6c3.2-0.4,6.2,1.8,6.6,5l12.4,90.4
		c0.4,3.2-1.8,6.2-5,6.6C2217.5,924.7,2217,924.7,2216.5,924.6L2216.5,924.6z"/>
	<path class="st9" d="M2351.1,926.8l-347.8-46.3c-10.7-1.4-20.6,6.1-22,16.8l-22.7,170.5c-1.4,10.7,6.1,20.6,16.8,22l347.8,46.3
		c10.7,1.4,20.6-6.1,22-16.8l22.7-170.5C2369.4,938.1,2361.9,928.2,2351.1,926.8L2351.1,926.8z"/>
	<path class="st10" d="M1980.2,1068.8l344.1,45.8l22.2-166.7l-344.1-45.8L1980.2,1068.8L1980.2,1068.8z M2324.8,1124.5l-347.8-46.3
		c-4.3-0.6-7.3-4.5-6.8-8.8l22.7-170.5c0.6-4.3,4.5-7.3,8.8-6.8l347.8,46.3c4.3,0.6,7.3,4.5,6.8,8.8l-22.7,170.5
		C2333.1,1122.1,2329.1,1125.1,2324.8,1124.5L2324.8,1124.5z"/>
	<path class="st8" d="M2207.7,1057.7c-2.4-0.3-4.6-1.8-5.7-4.1l-25.6-54.4l-6.1,46.2c-0.5,4-4.2,6.8-8.2,6.3c-4-0.5-6.8-4.2-6.3-8.2
		l9.4-70.8c0.4-3.2,2.9-5.8,6.1-6.3c3.2-0.5,6.4,1.2,7.8,4.1l25.6,54.4l6.1-46.2c0.5-4,4.2-6.8,8.2-6.3c4,0.5,6.8,4.2,6.3,8.2
		l-9.4,70.8c-0.4,3.2-2.9,5.8-6.1,6.3C2209.1,1057.8,2208.4,1057.8,2207.7,1057.7L2207.7,1057.7z"/>
	<path class="st8" d="M2038.4,986.3l8.2,1.1c6.3,0.8,12.1-3.6,12.9-9.9c0.8-6.3-3.6-12.1-9.9-12.9l-8.2-1.1L2038.4,986.3
		L2038.4,986.3z M2024.7,1033.3c-4-0.5-6.8-4.2-6.3-8.2l9.4-70.8c0.5-4,4.2-6.8,8.2-6.3l15.4,2.1c14.3,1.9,24.4,15.1,22.5,29.4
		c-1.9,14.3-15.1,24.4-29.4,22.5l-8.2-1.1l-3.5,26.2C2032.4,1031,2028.7,1033.9,2024.7,1033.3L2024.7,1033.3z"/>
	<path class="st8" d="M2058.3,1037.8c-2.6-0.3-4.9-2.1-5.9-4.7l-13.7-35.9c-1.4-3.8,0.5-8,4.2-9.5c3.8-1.4,8,0.5,9.5,4.2l13.7,35.9
		c1.4,3.8-0.5,8-4.2,9.5C2060.7,1037.8,2059.4,1037.9,2058.3,1037.8L2058.3,1037.8z"/>
	<path class="st8" d="M2127.2,1047l-33.7-4.5c-4-0.5-6.8-4.2-6.3-8.2l9.4-70.8c0.5-4,4.2-6.8,8.2-6.3l33.7,4.5
		c4,0.5,6.8,4.2,6.3,8.2c-0.5,4-4.2,6.8-8.2,6.3l-26.4-3.5l-7.5,56.3l26.4,3.5c4,0.5,6.8,4.2,6.3,8.2
		C2134.9,1044.7,2131.2,1047.5,2127.2,1047L2127.2,1047z"/>
	<path class="st8" d="M2131.9,1011.7l-33.7-4.5c-4-0.5-6.8-4.2-6.3-8.2c0.5-4,4.2-6.8,8.2-6.3l33.7,4.5c4,0.5,6.8,4.2,6.3,8.2
		C2139.6,1009.5,2135.9,1012.3,2131.9,1011.7L2131.9,1011.7z"/>
	<path class="st8" d="M2264.3,1065.2c-4-0.5-6.8-4.2-6.3-8.2l9.4-70.8c0.5-4,4.2-6.8,8.2-6.3c4,0.5,6.8,4.2,6.3,8.2l-9.4,70.8
		C2272,1062.9,2268.3,1065.8,2264.3,1065.2L2264.3,1065.2z"/>
	<path class="st8" d="M2299.9,997.9l-52.4-7c-4-0.5-6.8-4.2-6.3-8.2c0.5-4,4.2-6.8,8.2-6.3l52.4,7c4,0.5,6.8,4.2,6.3,8.2
		C2307.6,995.6,2303.9,998.4,2299.9,997.9L2299.9,997.9z"/>
	<path class="st11" d="M2190.8,801.7c13.5,1.8,22.9,14.2,21.1,27.6s-14.2,22.9-27.6,21.1c-13.5-1.8-22.9-14.2-21.1-27.6
		C2165,809.4,2177.3,800,2190.8,801.7L2190.8,801.7z"/>
</g>
</svg>
